<svg width="49" height="48" viewBox="0 0 49 48" fill="none" xmlns="http://www.w3.org/2000/svg">
<rect width="48" height="48" transform="translate(0.5)" fill="#121212"/>
<path d="M15.75 37.75V10.25H33.25V37.75H15.75ZM24.5 34.625C24.8542 34.625 25.1513 34.505 25.3913 34.265C25.6313 34.025 25.7508 33.7283 25.75 33.375C25.7492 33.0217 25.6292 32.725 25.39 32.485C25.1508 32.245 24.8542 32.125 24.5 32.125C24.1458 32.125 23.8492 32.245 23.61 32.485C23.3708 32.725 23.2508 33.0217 23.25 33.375C23.2492 33.7283 23.3692 34.0254 23.61 34.2662C23.8508 34.5071 24.1475 34.6267 24.5 34.625ZM18.25 29H30.75V16.5H18.25V29Z" fill="white"/>
</svg>
